<?xml version="1.0" encoding="UTF-8" standalone="no"?>
<svg
   xmlns:dc="http://purl.org/dc/elements/1.1/"
   xmlns:cc="http://creativecommons.org/ns#"
   xmlns:rdf="http://www.w3.org/1999/02/22-rdf-syntax-ns#"
   xmlns:svg="http://www.w3.org/2000/svg"
   xmlns="http://www.w3.org/2000/svg"
   xmlns:sodipodi="http://sodipodi.sourceforge.net/DTD/sodipodi-0.dtd"
   xmlns:inkscape="http://www.inkscape.org/namespaces/inkscape"
   height="512pt"
   viewBox="-32 0 511 512"
   width="512pt"
   version="1.1"
   id="svg4558"
   sodipodi:docname="brightness.svg"
   inkscape:version="0.92.3 (2405546, 2018-03-11)">
  <metadata
     id="metadata4564">
    <rdf:RDF>
      <cc:Work
         rdf:about="">
        <dc:format>image/svg+xml</dc:format>
        <dc:type
           rdf:resource="http://purl.org/dc/dcmitype/StillImage" />
      </cc:Work>
    </rdf:RDF>
  </metadata>
  <defs
     id="defs4562" />
  <sodipodi:namedview
     pagecolor="#ffffff"
     bordercolor="#666666"
     borderopacity="1"
     objecttolerance="10"
     gridtolerance="10"
     guidetolerance="10"
     inkscape:pageopacity="0"
     inkscape:pageshadow="2"
     inkscape:window-width="1366"
     inkscape:window-height="705"
     id="namedview4560"
     showgrid="false"
     inkscape:zoom="0.34570313"
     inkscape:cx="-18.80226"
     inkscape:cy="341.33333"
     inkscape:window-x="-8"
     inkscape:window-y="-8"
     inkscape:window-maximized="1"
     inkscape:current-layer="g4556" />
  <path
     d="m394.3125 256c0 94.257812-76.410156 170.667969-170.667969 170.667969-94.253906 0-170.664062-76.410157-170.664062-170.667969s76.410156-170.667969 170.664062-170.667969c94.257813 0 170.667969 76.410157 170.667969 170.667969zm0 0"
     fill="#ffd54f"
     id="path4542" />
  <g
     fill="#ffc107"
     id="g4556">
    <path
       d="m223.644531 69.332031c-8.832031 0-16-7.167969-16-16v-37.332031c0-8.832031 7.167969-16 16-16s16 7.167969 16 16v37.332031c0 8.832031-7.167969 16-16 16zm0 0"
       id="path4544"
       style="fill:#ffd54f;fill-opacity:1" />
    <path
       d="m48.113281 170.667969c-2.410156 0-4.882812-.535157-7.1875-1.730469l-31.617187-16c-7.894532-3.988281-11.050782-13.609375-7.0625-21.503906 4.011718-7.847656 13.65625-11.09375 21.507812-7.039063l31.613282 16c7.894531 3.988281 11.050781 13.609375 7.0625 21.503907-2.835938 5.566406-8.46875 8.769531-14.316407 8.769531zm0 0"
       id="path4546"
       style="fill:#ffd54f;fill-opacity:1" />
    <path
       d="m16.519531 389.332031c-5.84375 0-11.476562-3.199219-14.292969-8.765625-3.988281-7.894531-.832031-17.515625 7.0625-21.503906l31.613282-16c7.894531-4.054688 17.515625-.832031 21.503906 7.039062 3.992188 7.894532.832031 17.515626-7.058594 21.503907l-31.617187 16c-2.304688 1.195312-4.777344 1.726562-7.210938 1.726562zm0 0"
       id="path4548"
       style="fill:#ffd54f;fill-opacity:1" />
    <path
       d="m223.644531 512c-8.832031 0-16-7.167969-16-16v-37.332031c0-8.832031 7.167969-16 16-16s16 7.167969 16 16v37.332031c0 8.832031-7.167969 16-16 16zm0 0"
       id="path4550"
       style="fill:#ffd54f;fill-opacity:1" />
    <path
       d="m430.769531 389.332031c-2.429687 0-4.882812-.53125-7.210937-1.726562l-31.613282-16c-7.894531-3.988281-11.050781-13.609375-7.0625-21.503907 4.011719-7.871093 13.632813-11.09375 21.503907-7.039062l31.617187 16c7.890625 3.988281 11.050782 13.609375 7.058594 21.503906-2.816406 5.566406-8.445312 8.765625-14.292969 8.765625zm0 0"
       id="path4552"
       style="fill:#ffd54f;fill-opacity:1" />
    <path
       d="m399.175781 170.667969c-5.84375 0-11.476562-3.203125-14.292969-8.769531-3.988281-7.894532-.832031-17.515626 7.0625-21.503907l31.613282-16c7.894531-4.054687 17.515625-.832031 21.503906 7.039063 3.992188 7.894531.832031 17.515625-7.058594 21.503906l-31.617187 16c-2.324219 1.195312-4.800781 1.730469-7.210938 1.730469zm0 0"
       id="path4554"
       style="fill:#ffd54f;fill-opacity:1" />
  </g>
</svg>
