<?xml version="1.0" encoding="UTF-8" standalone="no"?>
<svg
   xmlns:dc="http://purl.org/dc/elements/1.1/"
   xmlns:cc="http://creativecommons.org/ns#"
   xmlns:rdf="http://www.w3.org/1999/02/22-rdf-syntax-ns#"
   xmlns:svg="http://www.w3.org/2000/svg"
   xmlns="http://www.w3.org/2000/svg"
   xmlns:sodipodi="http://sodipodi.sourceforge.net/DTD/sodipodi-0.dtd"
   xmlns:inkscape="http://www.inkscape.org/namespaces/inkscape"
   id="_x31_"
   enable-background="new 0 0 24 24"
   height="512"
   viewBox="0 0 24 24"
   width="512"
   version="1.1"
   sodipodi:docname="night-mode.svg"
   inkscape:version="0.92.3 (2405546, 2018-03-11)">
  <metadata
     id="metadata5137">
    <rdf:RDF>
      <cc:Work
         rdf:about="">
        <dc:format>image/svg+xml</dc:format>
        <dc:type
           rdf:resource="http://purl.org/dc/dcmitype/StillImage" />
      </cc:Work>
    </rdf:RDF>
  </metadata>
  <defs
     id="defs5135" />
  <sodipodi:namedview
     pagecolor="#ffffff"
     bordercolor="#666666"
     borderopacity="1"
     objecttolerance="10"
     gridtolerance="10"
     guidetolerance="10"
     inkscape:pageopacity="0"
     inkscape:pageshadow="2"
     inkscape:window-width="1366"
     inkscape:window-height="705"
     id="namedview5133"
     showgrid="false"
     showguides="true"
     inkscape:guide-bbox="true"
     inkscape:object-nodes="false"
     inkscape:zoom="0.23046875"
     inkscape:cx="739.25471"
     inkscape:cy="-84.149373"
     inkscape:window-x="-8"
     inkscape:window-y="-8"
     inkscape:window-maximized="1"
     inkscape:current-layer="_x31_" />
  <g
     id="g5126"
     transform="rotate(-43.353276,10.250003,12)"
     style="fill:#000000;stroke:none;stroke-opacity:1">
    <path
       d="M 12,18 C 8.691,18 6,15.309 6,12 6,8.691 8.691,6 12,6 c 0.767,0 1.502,0.14 2.187,0.416 0.19,0.077 0.314,0.262 0.313,0.467 C 14.499,7.088 14.373,7.271 14.182,7.346 12.249,8.1 11,9.927 11,12 c 0,2.073 1.249,3.9 3.182,4.654 0.191,0.075 0.317,0.258 0.318,0.463 10e-4,0.205 -0.123,0.39 -0.313,0.467 C 13.502,17.86 12.767,18 12,18 Z M 12.056671,7.2018446 C 9.2996712,7.2018446 7,9.243 7,12 c 0,2.757 2.243,5 5,5 0.212,0 -2.0854731,0.105562 -1.880473,0.08056 -1.6280001,-1.098 -3.4259825,-2.955506 -3.4259825,-4.985506 0,-2.03 1.2855179,-3.8722656 2.9135179,-4.9702656 -0.205,-0.025001 2.6616086,0.077053 2.4496086,0.077053 z"
       id="path5124"
       inkscape:connector-curvature="0"
       style="fill:#000000;stroke:none;stroke-opacity:1"
       sodipodi:nodetypes="ssscscscscsssscscs" />
  </g>
  <path
     sodipodi:type="star"
     style="opacity:1;fill:#000000;fill-opacity:1;stroke:none;stroke-width:0.00072193;stroke-linecap:round;stroke-linejoin:round;stroke-miterlimit:4;stroke-dasharray:none;stroke-opacity:1;paint-order:markers fill stroke"
     id="path5682"
     sodipodi:sides="4"
     sodipodi:cx="15.499752"
     sodipodi:cy="6.6556192"
     sodipodi:r1="1.4598652"
     sodipodi:r2="0.72993255"
     sodipodi:arg1="0"
     sodipodi:arg2="0.78539816"
     inkscape:flatsided="false"
     inkscape:rounded="0"
     inkscape:randomized="0"
     d="m 16.959617,6.6556191 -0.943725,0.5161403 -0.51614,0.943725 -0.51614,-0.943725 -0.943725,-0.5161403 0.943725,-0.5161402 0.51614,-0.943725 0.51614,0.943725 z" />
  <path
     d="M 14.097365,9.2161217 13.40931,9.5924314 13.033,10.280486 12.65669,9.5924314 11.968635,9.2161217 12.65669,8.8398119 13.033,8.1517569 l 0.37631,0.688055 z"
     inkscape:randomized="0"
     inkscape:rounded="0"
     inkscape:flatsided="false"
     sodipodi:arg2="0.78539816"
     sodipodi:arg1="0"
     sodipodi:r2="0.53218234"
     sodipodi:r1="1.0643648"
     sodipodi:cy="9.2161217"
     sodipodi:cx="13.033"
     sodipodi:sides="4"
     id="path5688"
     style="opacity:1;fill:#000000;fill-opacity:1;stroke:none;stroke-width:0.00052635;stroke-linecap:round;stroke-linejoin:round;stroke-miterlimit:4;stroke-dasharray:none;stroke-opacity:1;paint-order:markers fill stroke"
     sodipodi:type="star" />
</svg>
